# xmcd CD database file
#
# Track frame offsets:
#	150
#	27083
#	51601
#	86068
#	124529
#	152119
#
# Disc length: 2376 seconds
#
# Revision: 0
# Processed by: cddbd v1.5.2PL0 Copyright (c) Steve Scherf et al.
# Submitted via: CDex 1.70beta2
#
DISCID=48094606
DTITLE=Hanna Paulsberg Concept - Eastern Smiles
DYEAR=2016
DGENRE=Jazz
TTITLE0=Eastern Smiles
TTITLE1=Hemulen pa byn
TTITLE2=Ayumi
TTITLE3=A Hundred Years
TTITLE4=Hotel Papa Charlie
TTITLE5=Catalan Boy
EXTD=YEAR: 2016
EXTT0=
EXTT1=
EXTT2=
EXTT3=
EXTT4=
EXTT5=
PLAYORDER=
